<svg width="836" height="197" viewBox="0 0 836 197" fill="none" xmlns="http://www.w3.org/2000/svg">
<g clip-path="url(#clip0_1_87)">
<path d="M0 68.1688C0 95.4693 16.0494 119.002 39.2261 129.897V6.45319C16.0494 17.3352 0 40.881 0 68.1688Z" fill="#FFFFFF"/>
<path d="M46.0608 68.1685C46.0608 105.816 76.5813 136.337 114.229 136.337V0C76.5813 0 46.0608 30.5205 46.0608 68.1685Z" fill="#FFFFFF"/>
<path d="M189.244 0C186.687 0 184.166 0.152729 181.684 0.420008C147.588 4.18735 121.064 33.066 121.064 68.1685C121.064 103.271 147.588 132.149 181.684 135.917C184.166 136.197 186.687 136.349 189.244 136.349C226.893 136.349 257.414 105.829 257.414 68.1812C257.414 30.5332 226.905 0 189.244 0Z" fill="#FFFFFF"/>
<path d="M740.713 31.7345H773.318V56.4519L772.091 51.7188C772.792 48.7972 774.428 45.5833 776.999 42.0773C779.571 38.5712 783.018 35.5911 787.343 33.1369C791.783 30.5659 796.926 29.2803 802.769 29.2803C809.664 29.2803 815.449 30.6827 820.124 33.4875C824.798 36.2924 828.304 40.1489 830.641 45.0574C832.98 49.9658 834.148 55.6339 834.148 62.0616V129.552H801.366V68.8982C801.366 63.1718 800.373 58.9061 798.386 56.1014C796.4 53.2964 793.302 51.8941 789.095 51.8941C785.94 51.8941 783.193 52.829 780.856 54.6989C778.519 56.4519 776.708 58.9061 775.423 62.0616C774.136 65.2169 773.494 68.6645 773.494 72.4043V129.552H740.713V31.7345Z" fill="#FFFFFF"/>
<path d="M687.665 131.831C677.03 131.831 667.798 129.728 659.967 125.521C652.138 121.196 646.177 115.236 642.086 107.64C637.997 99.9265 635.951 90.9861 635.951 80.8187C635.951 70.885 637.938 62.0616 641.912 54.3483C645.885 46.5182 651.67 40.3827 659.265 35.9417C666.98 31.5007 676.037 29.2803 686.438 29.2803C697.189 29.2803 706.305 31.4424 713.785 35.7665C721.264 40.0905 726.874 46.0508 730.614 53.6472C734.471 61.1266 736.398 69.7164 736.398 79.4164C736.398 81.9874 736.398 84.3247 736.398 86.4284H660.142V68.1971H706.948L702.39 69.2489C702.39 65.5092 701.864 62.12 700.813 59.0815C699.761 56.0429 698.007 53.5887 695.554 51.7188C693.098 49.732 690.002 48.7387 686.262 48.7387C682.64 48.7387 679.484 49.8489 676.796 52.0694C674.108 54.173 672.005 57.2116 670.486 61.1851C669.083 65.1586 668.381 69.8917 668.381 75.3844V85.2013C668.381 91.2784 669.083 96.3621 670.486 100.452C672.005 104.426 674.108 107.406 676.796 109.393C679.602 111.38 682.932 112.373 686.788 112.373C691.579 112.373 695.203 111.029 697.656 108.341C700.228 105.653 701.747 102.089 702.214 97.6477H735.346C734.646 103.725 732.366 109.334 728.51 114.477C724.77 119.619 719.394 123.826 712.382 127.098C705.487 130.254 697.248 131.831 687.665 131.831Z" fill="#FFFFFF"/>
<path d="M479.677 31.7345H512.282V47.6869C514.854 42.5447 518.594 38.2206 523.502 34.7146C528.527 31.0917 534.546 29.2803 541.557 29.2803C549.037 29.2803 555.172 30.9748 559.964 34.364C564.755 37.7532 568.203 42.4278 570.306 48.3881C572.994 43.2459 576.91 38.8049 582.052 35.0652C587.194 31.2087 593.271 29.2803 600.283 29.2803C607.412 29.2803 613.373 30.6827 618.164 33.4875C622.956 36.2924 626.521 40.1489 628.858 45.0574C631.311 49.9658 632.539 55.6339 632.539 62.0616V129.552H599.583V68.723C599.583 62.9965 598.588 58.7893 596.602 56.1014C594.732 53.2964 591.693 51.8941 587.486 51.8941C584.447 51.8941 581.818 52.829 579.597 54.6989C577.377 56.5688 575.624 59.023 574.34 62.0616C573.053 64.9832 572.411 68.0802 572.411 71.3525V129.552H539.63V68.723C539.63 62.9965 538.636 58.7893 536.648 56.1014C534.78 53.2964 531.741 51.8941 527.534 51.8941C524.612 51.8941 521.983 52.829 519.644 54.6989C517.307 56.4519 515.496 58.9061 514.211 62.0616C513.042 65.1001 512.457 68.5476 512.457 72.4043V129.552H479.677V31.7345Z" fill="#FFFFFF"/>
<path d="M471.518 129.552H438.912V105.36L440.666 108.165C439.848 111.905 438.153 115.586 435.582 119.209C433.127 122.832 429.621 125.87 425.063 128.325C420.623 130.779 415.304 132.006 409.111 132.006C402.566 132.006 396.899 130.603 392.107 127.799C387.432 124.877 383.868 120.962 381.414 116.054C379.077 111.028 377.907 105.302 377.907 98.874V31.7338H410.864V93.7903C410.864 98.8156 411.858 102.672 413.844 105.36C415.831 108.048 418.986 109.392 423.311 109.392C426.349 109.392 429.037 108.516 431.374 106.763C433.712 104.893 435.523 102.439 436.809 99.3999C438.094 96.2446 438.737 92.8554 438.737 89.2325V31.7338H471.518V129.552Z" fill="#FFFFFF"/>
<path d="M296.639 6.84003H329.946V103.957H373.954V129.551H296.639V6.84003Z" fill="#FFFFFF"/>
<path d="M602.933 152.807H629.94V157.767H609.057V170.812H628.104V175.772H609.057V190.715H630.553V195.675H602.933V152.807ZM638.622 152.807H646.89L668.018 192L666.487 191.755C666.487 188.286 666.487 184.836 666.487 181.406V152.807H672.121V195.675H663.976L642.48 155.868L644.257 156.052C644.257 157.073 644.257 158.114 644.257 159.176C644.257 160.768 644.257 161.972 644.257 162.789C644.257 163.564 644.257 164.728 644.257 166.279V195.675H638.622V152.807ZM682.386 152.807H709.394V157.767H688.51V170.812H707.557V175.772H688.51V190.715H710.006V195.675H682.386V152.807ZM718.076 152.807H735.101C738.327 152.807 741.042 153.337 743.246 154.398C745.491 155.419 747.166 156.787 748.268 158.501C749.411 160.176 749.983 162.033 749.983 164.075C749.983 167.096 749.003 169.566 747.044 171.484C745.124 173.404 742.49 174.588 739.143 175.037L740.245 173.75C743.308 174.118 745.573 175.058 747.044 176.568C748.513 178.038 749.248 179.977 749.248 182.386V189.796C749.248 191.388 749.289 192.613 749.37 193.471C749.493 194.288 749.718 195.022 750.045 195.675H743.614C743.41 195.145 743.268 194.492 743.186 193.716C743.144 192.939 743.124 191.695 743.124 189.979V184.039C743.124 181.876 742.634 180.201 741.654 179.017C740.716 177.793 739.122 177.181 736.877 177.181H724.2V195.675H718.076V152.807ZM734.244 172.71C737.388 172.71 739.715 171.995 741.225 170.567C742.735 169.138 743.491 167.259 743.491 164.932C743.491 163.422 743.165 162.095 742.512 160.952C741.859 159.808 740.858 158.91 739.511 158.256C738.164 157.603 736.489 157.277 734.489 157.277H724.2V172.71H734.244ZM776.67 196.533C772.423 196.533 768.789 195.573 765.768 193.654C762.787 191.695 760.523 189.04 758.97 185.693C757.46 182.345 756.704 178.568 756.704 174.363C756.704 170.159 757.501 166.361 759.093 162.973C760.686 159.584 763.013 156.931 766.074 155.011C769.177 153.052 772.853 152.072 777.098 152.072C780.773 152.072 783.956 152.704 786.652 153.971C789.346 155.236 791.388 156.931 792.776 159.053C794.205 161.176 794.939 163.523 794.98 166.096H788.121C788.08 164.34 787.653 162.748 786.835 161.319C786.018 159.891 784.774 158.746 783.099 157.889C781.467 157.032 779.426 156.603 776.975 156.603C774.077 156.603 771.607 157.38 769.566 158.931C767.524 160.482 765.973 162.604 764.911 165.3C763.891 167.994 763.38 171.016 763.38 174.363C763.38 177.752 763.891 180.773 764.911 183.427C765.973 186.08 767.545 188.183 769.626 189.734C771.749 191.246 774.342 192 777.404 192C779.813 192 781.896 191.511 783.651 190.531C785.447 189.51 786.794 188.142 787.693 186.428C788.632 184.714 789.101 182.856 789.101 180.854V180.181H779.976V175.221H794.858V195.675H789.408V187.101L789.836 188.02C789.387 189.489 788.591 190.879 787.448 192.185C786.345 193.45 784.875 194.492 783.039 195.308C781.2 196.124 779.078 196.533 776.67 196.533ZM812.665 177.731L814.318 182.998L797.784 152.807H804.766L817.259 176.813L814.686 176.751L827.608 152.807H833.917L817.319 182.875L818.851 177.608V195.675H812.665V177.731Z" fill="#FFFFFF"/>
</g>
<defs>
<clipPath id="clip0_1_87">
<rect width="836" height="196.528" fill="white"/>
</clipPath>
</defs>
</svg>
